Coordinates
version=1
nRows=17
nColumns=40
inDegrees=yes

Units are S.I. units (second, meters, Newtons, ...)
Angles are in degrees.

endheader
time	pelvis_tilt	pelvis_list	pelvis_rotation	pelvis_tx	pelvis_ty	pelvis_tz	hip_flexion_r	hip_adduction_r	hip_rotation_r	knee_angle_r	knee_angle_r_beta	ankle_angle_r	subtalar_angle_r	mtp_angle_r	hip_flexion_l	hip_adduction_l	hip_rotation_l	knee_angle_l	knee_angle_l_beta	ankle_angle_l	subtalar_angle_l	mtp_angle_l	lumbar_extension	lumbar_bending	lumbar_rotation	arm_flex_r	arm_add_r	arm_rot_r	elbow_flex_r	pro_sup_r	wrist_flex_r	wrist_dev_r	arm_flex_l	arm_add_l	arm_rot_l	elbow_flex_l	pro_sup_l	wrist_flex_l	wrist_dev_l
      1.68000000	      0.23510443	     11.67235320	     -6.32241589	      0.54928555	      0.95062241	     -1.05862656	      5.21946791	    -25.47001985	    -11.46936521	    -55.98331486	     -0.97709317	     -8.67843941	    -10.38577641	     -5.77014533	     14.30077075	    -10.97437559	      8.23010851	    -16.10006421	     -0.28099913	     -1.15019261	      7.73677826	      1.41853928	     -1.21762906	    -13.25702239	      7.00947487	      4.42351743	    -11.14326131	     -7.78036883	     28.35916661	     89.95437384	      0.00000000	      0.00000000	     -7.94271160	     12.30350243	     14.76454631	     10.44958130	     89.95437384	      0.00000000	      0.00000000
      1.69000000	      0.19383615	     11.39523681	     -6.85781361	      0.55818861	      0.95218315	     -1.05952650	      7.29956462	    -24.91892355	    -10.44285853	    -57.55902721	     -1.00459454	     -8.06948962	    -12.75727989	     -5.02177802	     13.40060673	    -10.76680578	      8.66288175	    -15.47963080	     -0.27017052	     -0.87206400	      7.58597408	      1.41130130	     -1.26422622	    -12.88652916	      7.00713412	      4.58111772	    -11.09629847	     -7.48124518	     27.87042871	     89.95437384	      0.00000000	      0.00000000	     -7.15761920	     12.28016214	     14.86238427	     10.97810605	     89.95437384	      0.00000000	      0.00000000
      1.70000000	      0.28062958	     11.06485733	     -7.24185103	      0.56695728	      0.95389783	     -1.06060103	      9.04640667	    -24.38211603	     -9.89277521	    -58.83489667	     -1.02686266	     -7.30584279	    -14.15123224	     -4.60528657	     12.32340700	    -10.59088461	      8.75290923	    -14.84125309	     -0.25902873	     -0.42908121	      7.24295645	      1.32194370	     -1.51197632	    -12.47808153	      6.83689098	      4.78031300	    -11.06219443	     -7.33011629	     27.33353837	     89.95437384	      0.00000000	      0.00000000	     -6.20060414	     12.26670650	     14.89664377	     11.38491009	     89.95437384	      0.00000000	      0.00000000
      1.71000000	      0.23824058	     10.73265239	     -7.72188201	      0.57571564	      0.95539293	     -1.06143370	     10.90348059	    -23.64767753	     -9.13442888	    -59.81634077	     -1.04399209	     -6.45800554	    -15.71702863	     -3.80266830	     11.35774033	    -10.35411933	      9.20897716	    -14.10392440	     -0.24615992	     -0.20055917	      6.98611834	      1.25852901	     -1.60246864	    -12.04393568	      6.73539127	      4.97433321	    -11.01435801	     -7.19070253	     26.86274935	     89.95437384	      0.00000000	      0.00000000	     -5.38587190	     12.25803637	     14.95420080	     11.94032081	     89.95437384	      0.00000000	      0.00000000
      1.72000000	      0.20662851	     10.33194650	     -8.03276026	      0.58450971	      0.95685898	     -1.06248168	     12.55624295	    -22.86110752	     -8.68551903	    -60.50547285	     -1.05601972	     -5.62513496	    -16.61348245	     -3.01356238	     10.35552969	    -10.08199850	      9.57818127	    -13.38568726	     -0.23362432	      0.11110032	      6.58784639	      1.16525242	     -1.72776656	    -11.52726775	      6.52388632	      5.09988998	    -10.99017874	     -7.18557630	     26.40697714	     89.95437384	      0.00000000	      0.00000000	     -4.50295670	     12.26461256	     14.85718862	     12.50848967	     89.95437384	      0.00000000	      0.00000000
      1.73000000	      0.17189412	      9.91840164	     -8.26066141	      0.59326883	      0.95822269	     -1.06348829	     14.07434329	    -22.06791111	     -8.48652499	    -60.88997328	     -1.06273052	     -4.76677490	    -17.18344928	     -2.03456013	      9.36955336	     -9.78743680	     10.07433460	    -12.69144108	     -0.22150743	      0.35912935	      6.08301654	      1.07112341	     -1.88985247	    -10.99945437	      6.25017546	      5.19133728	    -11.01048835	     -7.11527840	     26.06770569	     89.95437384	      0.00000000	      0.00000000	     -3.61688146	     12.31417856	     14.72608089	     13.14769233	     89.95437384	      0.00000000	      0.00000000
      1.74000000	      0.14335685	      9.46228461	     -8.38007866	      0.60203608	      0.95953498	     -1.06455544	     15.42016799	    -21.16691588	     -8.38328504	    -60.98271845	     -1.06434922	     -3.74715923	    -17.56329423	     -0.88642071	      8.35249198	     -9.45820886	     10.42398227	    -11.97314309	     -0.20897077	      0.43107400	      5.38428828	      0.98163384	     -2.08067718	    -10.43331301	      5.87634403	      5.27308355	    -11.04431361	     -7.09216366	     25.68798093	     89.95437384	      0.00000000	      0.00000000	     -2.72486275	     12.39464775	     14.44571255	     13.80293974	     89.95437384	      0.00000000	      0.00000000
      1.75000000	      0.25244407	      8.68953581	     -8.32407344	      0.61082744	      0.96101169	     -1.06534326	     16.43180500	    -19.94843489	     -8.73069425	    -61.00051329	     -1.06465980	      0.17188231	    -17.56637800	     18.64618346	      7.36266055	     -8.62439652	     11.70945180	    -11.72005855	     -0.20455361	      0.23726376	      3.41640043	     -1.25301892	     -2.50489525	     -9.55477281	      5.44223008	      5.21054312	    -11.07100819	     -7.40173613	     25.58441991	     89.95437384	      0.00000000	      0.00000000	     -1.78059207	     12.53799274	     13.66280682	     14.59116215	     89.95437384	      0.00000000	      0.00000000
      1.76000000	      0.08727477	      8.32277149	     -8.10169229	      0.61940375	      0.96188143	     -1.06684662	     17.72981659	    -19.30531012	     -9.19769440	    -60.61971744	     -1.05801366	      0.66777842	    -17.69651769	     18.41465162	      6.62391735	     -8.42937221	     11.63742103	    -11.18658981	     -0.19524282	      0.40151448	      3.03579997	     -1.32940781	     -2.58231409	     -9.05181889	      4.80725235	      5.18581212	    -11.13420106	     -7.37802128	     25.36544211	     89.95437384	      0.00000000	      0.00000000	     -0.85295096	     12.66800085	     13.30910272	     15.30671965	     89.95437384	      0.00000000	      0.00000000
      1.77000000	     -0.09384901	      8.11995968	     -7.83932053	      0.62792537	      0.96242395	     -1.06851340	     19.06234490	    -18.92144940	     -9.74677723	    -60.10869549	     -1.04909465	      1.03188918	    -17.67501198	     18.14422495	      6.07221673	     -8.38890208	     11.87174931	    -10.90594147	     -0.19034459	      0.69008276	      2.91848785	     -1.38112773	     -2.62724529	     -8.70883139	      4.11226364	      5.10345458	    -11.20689103	     -7.36941025	     25.32779904	     89.95437384	      0.00000000	      0.00000000	      0.10464726	     12.82094011	     13.05610139	     15.98573126	     89.95437384	      0.00000000	      0.00000000
      1.78000000	      0.11896039	      7.34030177	     -7.19406884	      0.63677854	      0.96381131	     -1.06990899	     19.30324511	    -17.97987168	    -11.04757036	    -58.88888614	     -1.02780496	      1.59589547	    -17.79898422	     18.24015696	      4.88159004	     -7.78140052	     11.06809426	    -10.49643522	     -0.18319735	      0.91397302	      2.19507455	     -1.71057156	     -3.22254146	     -7.83264776	      3.17323793	      5.03785644	    -11.17749141	     -8.06463615	     25.15179984	     89.95437384	      0.00000000	      0.00000000	      0.96607616	     13.14629537	     11.51555665	     17.12279453	     89.95437384	      0.00000000	      0.00000000
      1.79000000	     -0.11652321	      7.25070181	     -6.92785744	      0.64544587	      0.96389314	     -1.07127485	     20.62111727	    -17.68057651	    -11.55898931	    -57.97288778	     -1.01181777	      1.94405568	    -17.58002734	     17.95796016	      4.46529242	     -7.82810603	     11.23073636	    -10.34820539	     -0.18061026	      1.19233308	      2.08025876	     -1.77387715	     -3.13211199	     -7.62497718	      2.52509143	      4.86426885	    -11.24736070	     -8.05578141	     25.14344518	     89.95437384	      0.00000000	      0.00000000	      1.89437301	     13.37981697	     11.26446884	     17.83450895	     89.95437384	      0.00000000	      0.00000000
      1.80000000	     -0.01645195	      6.49394362	     -6.09848552	      0.65398749	      0.96474332	     -1.07254516	     20.88278678	    -16.81817240	    -13.04498331	    -56.37735062	     -0.98397039	      2.45019408	    -17.51785376	     18.18208915	      3.56082008	     -7.16901904	     10.22092788	    -10.18227288	     -0.17771419	      1.51873347	      1.55069356	     -2.37720442	     -3.60888163	     -6.77027276	      1.51191916	      4.78543854	    -11.14736371	     -9.07821981	     24.94771949	     89.95437384	      0.00000000	      0.00000000	      2.79975889	     13.84989417	      9.27014223	     19.01398954	     89.95437384	      0.00000000	      0.00000000
      1.81000000	     -0.33161479	      6.47959613	     -5.79539647	      0.66234108	      0.96438471	     -1.07367168	     22.20460034	    -16.60992794	    -13.59687486	    -55.09203903	     -0.96153747	      2.74906940	    -17.22869194	     17.89763125	      3.31940654	     -7.25682238	     10.28890284	    -10.14040631	     -0.17698348	      1.80456523	      1.47285125	     -2.44692966	     -3.43845810	     -6.65496779	      0.83679266	      4.61803285	    -11.18563207	     -9.13268173	     24.95192653	     89.95437384	      0.00000000	      0.00000000	      3.73896223	     14.13139638	      9.05836775	     19.76993832	     89.95437384	      0.00000000	      0.00000000
      1.82000000	     -0.62773382	      5.95566165	     -4.93162653	      0.67046337	      0.96421628	     -1.07508906	     22.99064917	    -16.00758966	    -14.97025525	    -53.35115603	     -0.93115333	      3.05120919	    -16.97475785	     17.72034972	      3.07209613	     -6.80939036	      9.14507471	    -10.27586200	     -0.17934763	      2.33523560	      1.28811920	     -2.76846772	     -3.43708818	     -6.00619684	     -0.27537314	      4.61049363	    -11.04315587	    -10.17272620	     24.60795173	     89.95437384	      0.00000000	      0.00000000	      4.61531511	     14.55717686	      7.81494889	     20.82033381	     89.95437384	      0.00000000	      0.00000000
      1.83000000	     -0.85967813	      5.66600960	     -4.41748124	      0.67887150	      0.96391725	     -1.07604142	     23.87100030	    -15.58913897	    -15.95872751	    -51.55172720	     -0.89974737	      3.19672659	    -16.59837307	     17.60306846	      2.69538984	     -6.59790674	      8.53491307	    -10.25403569	     -0.17896668	      2.87007747	      1.29392174	     -3.05090683	     -3.39171788	     -5.61895833	     -0.99164175	      4.47832725	    -10.98241297	    -10.92405890	     24.38222951	     89.95437384	      0.00000000	      0.00000000	      5.59964006	     14.93289004	      6.87366639	     21.63632376	     89.95437384	      0.00000000	      0.00000000
      1.84000000	     -0.97020744	      5.37389173	     -3.86540337	      0.68734001	      0.96370842	     -1.07690074	     24.49769574	    -15.18845527	    -16.94989704	    -49.55355693	     -0.86487272	      3.28372748	    -16.14986575	     17.46527210	      2.23014501	     -6.37757815	      7.98098525	    -10.32689099	     -0.18023825	      3.24128819	      1.44707935	     -3.41401898	     -3.47463875	     -5.25053849	     -1.75279443	      4.35560721	    -10.86396890	    -11.97064896	     24.17580791	     89.95437384	      0.00000000	      0.00000000	      6.59207432	     15.38022047	      5.66973565	     22.47082869	     89.95437384	      0.00000000	      0.00000000
